<svg xmlns="http://www.w3.org/2000/svg" viewBox="0 0 281.75 281.75"><defs><style>.cls-1{fill:#fff;}.cls-2{fill:#003057;}.cls-3{fill:#a32035;}</style></defs><g id="Layer_2" data-name="Layer 2"><g id="Layer_3" data-name="Layer 3"><circle class="cls-1" cx="140.88" cy="140.88" r="140.88"/><path class="cls-2" d="M9.79,124.39c3.71,0,7.51.47,9.4.48l26,0c2.6,0,10,.94,16,.94,3.75,0,6.92-.38,7.89-1.6,1.52-1.9.23-12.32.25-14.61q0-6.66.1-13.31c.16-20.36.19-40.72.26-61.09,0-2-.57-5.23-.45-8A134.57,134.57,0,0,0,7.75,124.45Q8.75,124.39,9.79,124.39Z"/><path class="cls-2" d="M172.44,268c-4.45-1.5-7.47-.47-12-2.7-3.73-1.86-7.72-3.63-11.34-5.73-5.15-3-6.2-8.81-8.8-14-2.29-4.56-1.7-10.83-4.06-14.83-.84-1.42-3.26-2.39-4.41-3.78-1.28-1.55-1.76-3.36-2.87-5-2-2.93-4.94-5.07-6.7-8.18-3.52-6.19-4.81-14.17-8.87-20-3.79-5.41-10.93-11.7-17.39-12.64a54,54,0,0,0-7.68-.75c-3.62,0-7.11.79-9.1,3.69C76,188.89,76.5,199.38,68,199.38h0c-4.92,0-15-6.83-18.93-9.74-6.36-4.76-9.78-9.52-11.45-17.22-1.46-6.72-4.08-11.25-9.61-15.21C22,153,16.57,147.29,11,142.46a38.88,38.88,0,0,1-4.2-4.84c0,1.09-.09,2.17-.09,3.26A134.64,134.64,0,0,0,177.05,270.72,15.91,15.91,0,0,0,172.44,268Z"/><path class="cls-2" d="M141.38,6.21A134,134,0,0,0,79.22,21.43c1.09.1,2.1.21,2.9.21q14.44.08,28.88.07h0c1.31,0,3.19-.18,5.31-.37s4.49-.38,6.76-.38c4.43,0,8.51.71,9.8,3.54,1.42,3.11.22,9.06.22,12.31l0,13.73c0,8-2.57,17.76,7.18,19,5.57.7,3.57.7,7.74,3.86,2.33,1.77,5.14,1.85,7.87,2.24a13,13,0,0,0,1.84.11c.93,0,1.94,0,3-.11s2.06-.11,3-.11a10.05,10.05,0,0,1,3.36.43c2.46.94,2.81,3.94,5.36,4.64a.69.69,0,0,0,.2,0,3.25,3.25,0,0,0,1.29-.49,3.13,3.13,0,0,1,1.36-.49h.17c1.31.23,2.22.87,3.45,1.14a14.19,14.19,0,0,0,3.13.35c2.34,0,4.25-.56,7-.56h0a34.72,34.72,0,0,1,6.71.89c3.54,1.23,3.84,2.16,5.45,2.16a16.48,16.48,0,0,0,3.87-.75,65.62,65.62,0,0,1,16.21-2.23h.33c6.41,0,10.68,5.59,16.88,7.41,3.1.92,7,0,9,3.11,1.7,2.67.39,8.35.39,11.48q0,8.58,0,17.17c0,5.59.76,5.79,3.11,10.37,1.74,3.4,1.75,11.37,5,14l.54.44.17.14-.17-.14-.22-.18-.29-.23c3.91,3.21,1.21,10.18,0,13.85-1.49,4.39-1.11,7.42-1.5,11.82-.34,3.77-2.91,6.06-3.68,9.14-.66,2.62,1.29,2.44-1.19,4.6a1.84,1.84,0,0,1-1.22.33c-.27,0-.55,0-.82,0s-.54,0-.79,0a2,2,0,0,0-.62.07c-8.63,2.57-13.78,8.49-20.53,14-7.26,5.89-15.61,9.75-23.16,15.16-7.83,5.63-14.38,11.79-17.67,21.17S186.17,252.55,187,262c.21,2.32.22,4.2-.45,5.71A134.67,134.67,0,0,0,141.38,6.21Z"/><polygon class="cls-2" points="220.51 179.78 221.87 175.6 223.5 179.14 221.96 172.94 219.79 178.74 213.51 178.74 219.04 182.34 216.45 179.78 220.51 179.78"/><path class="cls-2" d="M230.88,178a14.18,14.18,0,0,0-9.62,3,14.84,14.84,0,0,0-4.74,9.24s2.37-6.63,6.7-9.21a20,20,0,0,1,7.66-3.07"/><polygon class="cls-2" points="218.88 188.3 221.9 184.31 225.42 186.58 223.83 182.84 227.8 180.05 225.22 183.17 226.95 188.45 221.97 185.69 218.88 188.3"/><path class="cls-2" d="M242.47,146.36h-.24c-2.08,0-4.1-1.89-6.18-5.78a13.23,13.23,0,0,0-2.68-3.6c-.14-.1-.5-.38-.76-.6a5.17,5.17,0,0,0,1.15-.94,4.07,4.07,0,0,0,.74-2.51c0-.19,0-.39,0-.59a3.59,3.59,0,0,0-1.28-2.51,5.2,5.2,0,0,0-3.2-.75l-1.14,0h-1l-1.67-.05h-.08a.46.46,0,1,0,0,.92,3.06,3.06,0,0,1,.47,0c.32.08.37.16.4.62s0,1,0,3.53v2.9c0,1.59,0,2.86-.08,3.52s-.17.61-.19.61a2.32,2.32,0,0,1-.45.06.46.46,0,0,0-.51.44c0,.12,0,.48.64.48.31,0,.88,0,1.54-.05h.26c.29,0,1.08,0,1.78,0s.64-.33.64-.48a.45.45,0,0,0-.5-.44,6.75,6.75,0,0,1-.68-.06c-.15,0-.25,0-.31-.61s-.09-2-.09-3.52v-6.71a5.45,5.45,0,0,1,.85-.06c1.52,0,2.43,1.1,2.44,2.92a3.67,3.67,0,0,1-.31,1.56,1.22,1.22,0,0,1-.28.37,3.16,3.16,0,0,1-1.25.78,1.55,1.55,0,0,0-.35.12.42.42,0,0,0-.32.38.48.48,0,0,0,.07.23.53.53,0,0,0,.35.21l.1,0a1.45,1.45,0,0,1,.26.11,3.92,3.92,0,0,1,.77.72,20.34,20.34,0,0,1,1.6,2.5,22.83,22.83,0,0,0,4.39,5.89,6.15,6.15,0,0,0,4.25,1.21h0a3.8,3.8,0,0,0,1-.14.45.45,0,0,0,.32-.44.42.42,0,0,0-.47-.4M217,136l1.11-3.39c.54,1.48.93,2.57,1.15,3.27A5.93,5.93,0,0,0,217,136m4.2,5.21h-.09l-.09,0c-.33.08-.4.28-.4.44,0,.43.46.44.74.45h.48c.8,0,1.71,0,2.56,0,.47,0,.71-.16.71-.48,0-.13-.06-.43-.55-.43a1.61,1.61,0,0,1-.54-.09c-.24-.07-.62-.31-1.15-1.64-.18-.45-.41-1.05-.67-1.72a2.42,2.42,0,0,0,1.1-1.11l.35-.9-.87.42a2.64,2.64,0,0,1-1,.16h-.15l-1.34-3.52-.61-1.61-.61-1.62c-.18-.47-.32-.84-.72-.84s-.52.35-.71.89l-3.7,10.22c-.33.94-.58,1.26-1,1.32l-.43,0a.48.48,0,0,0-.54.45.45.45,0,0,0,.24.41.77.77,0,0,0,.31.06h.14c.48,0,1,0,1.43,0h.4l.4,0,1,0c.54,0,.62-.29.62-.47s-.19-.45-.51-.45h-.29c-.11,0-.26-.07-.26-.12a4,4,0,0,1,.21-1l.23-.68.72-2.17a7.28,7.28,0,0,1,2.78.55,4.5,4.5,0,0,0,.63.17c.28.72.67,1.77,1.18,3.13Zm5.52,11.48a4.83,4.83,0,0,1-1.5-.26,6.58,6.58,0,0,0-1.51-.28v-3.79c.6,0,1.71,0,1.9,0,.82.09.87.22.9.29a1.45,1.45,0,0,1,.07.45c0,.6.38.63.46.63.34,0,.41-.36.44-.5s0-.48.06-.79v-.08c0-.11,0-.2,0-.24a3.7,3.7,0,0,1,.1-.55,1.17,1.17,0,0,0,0-.26c0-.48-.28-.53-.4-.53a.58.58,0,0,0-.28.08l-.05,0a4.3,4.3,0,0,1-.61.07h-4c-.32,0-1,0-1.53,0s-.64.39-.64.47a.45.45,0,0,0,.51.43,3.2,3.2,0,0,1,.48,0c.29.06.37.21.4.69s0,1,0,3.53v.31a5.48,5.48,0,0,0-1.19.52l-.08.05-.12.19.09.27.17.2h.16c.41,0,.72,0,1,0V155c0,1.6,0,2.86-.08,3.52s-.14.65-.18.66a2.4,2.4,0,0,1-.4,0,.48.48,0,0,0-.51.48c0,.27.25.44.64.44l1.08,0,.51,0,.63,0c.58,0,1.67.08,3.39.08.63,0,1,0,1.17-.72a15,15,0,0,0,.22-1.68c0-.6-.38-.63-.46-.63-.35,0-.42.38-.46.56-.1.62-.26.8-.5.91a4.73,4.73,0,0,1-1.42.14c-1.46,0-1.47-.15-1.51-1,0-.18,0-.85,0-1.94V154l.57.18a4.94,4.94,0,0,0,1.53.27,2.54,2.54,0,0,0,2.41-1.4l.37-.9-.88.42a2.63,2.63,0,0,1-1,.16m-24.05,0a5.17,5.17,0,0,1-1.5-.25,6,6,0,0,0-1.51-.29v-3.79c.58,0,1.71,0,1.9,0,.82.09.87.22.9.29a1.5,1.5,0,0,1,.07.45c0,.6.38.63.46.63.34,0,.41-.36.44-.5s0-.44.06-.79v-.08c0-.11,0-.19,0-.24a5.11,5.11,0,0,1,.09-.53,1,1,0,0,0,0-.28c0-.47-.28-.53-.4-.53a.61.61,0,0,0-.32.1,5.78,5.78,0,0,1-.62.07h-3.92c-.16,0-1-.05-1.64-.05-.47,0-.63.24-.63.47a.44.44,0,0,0,.5.43,3.2,3.2,0,0,1,.48,0c.29.06.37.2.4.69s0,1,0,3.53v.31a5.15,5.15,0,0,0-1.24.55l-.14.21.08.27.17.2h.16c.41,0,.71,0,1,0V155c0,1.6,0,2.86-.08,3.52s-.14.65-.18.65a1.76,1.76,0,0,1-.4.06.49.49,0,0,0-.51.48c0,.27.25.44.64.44l1.15,0,.44,0,.65,0c.64,0,1.69.08,3.37.08.63,0,1,0,1.17-.72a16.26,16.26,0,0,0,.22-1.68c0-.6-.39-.63-.46-.63-.35,0-.42.36-.46.57-.1.61-.25.79-.5.9a4.73,4.73,0,0,1-1.42.14c-1.46,0-1.47-.15-1.51-1,0-.25,0-1.48,0-1.94V154l.58.18a4.74,4.74,0,0,0,1.52.27,2.52,2.52,0,0,0,2.41-1.4l.37-.91-.88.43a2.71,2.71,0,0,1-1,.16m-21.92-22.79a2.27,2.27,0,0,1,.48,0c.29.06.37.2.4.68s0,1,0,3.53v.32a5.32,5.32,0,0,0-1.25.55l-.13.2.08.28.17.2h.16c.41,0,.71-.05,1-.05v1.41c0,1.59,0,2.85-.08,3.52s-.14.64-.18.65a2.78,2.78,0,0,1-.4.06.49.49,0,0,0-.52.48c0,.27.26.44.64.44l1.15,0,.45,0,.62,0h.05c.63,0,1.68.08,3.35.08.63,0,1,0,1.17-.72a15.45,15.45,0,0,0,.22-1.69c0-.59-.39-.62-.46-.62-.36,0-.42.36-.46.56-.1.62-.26.79-.51.9a4.37,4.37,0,0,1-1.41.15c-1.46,0-1.47-.13-1.51-1,0-.13,0-.59,0-2.07V136l.57.18a4.84,4.84,0,0,0,1.53.27,2.52,2.52,0,0,0,2.41-1.4l.36-.91-.88.43a2.7,2.7,0,0,1-1,.15,4.81,4.81,0,0,1-1.5-.25,6,6,0,0,0-1.51-.28v-3.8c.67,0,1.73,0,1.91,0,.82.09.87.21.9.28a1.5,1.5,0,0,1,.07.45c0,.61.38.64.45.64.36,0,.42-.38.45-.5s0-.42.06-.72l0-.39a4.59,4.59,0,0,1,.1-.56,1.07,1.07,0,0,0,0-.25c0-.48-.27-.53-.39-.53a.76.76,0,0,0-.33.09,2.81,2.81,0,0,1-.62.07c-.36,0-3.68,0-3.7,0h-.23c-.37,0-1.08,0-1.62,0s-.64.38-.64.46a.45.45,0,0,0,.51.44m26.4,7.15c0,1.53,0,2.86-.08,3.52s-.17.63-.18.63a4.37,4.37,0,0,1-.66.06.45.45,0,0,0-.51.43.48.48,0,0,0,.54.47h.1c.36,0,1.24,0,1.6,0h.59c.4,0,1,0,1.66,0s.64-.32.64-.46-.16-.43-.51-.43c-.12,0-.46,0-.68-.06s-.25,0-.31-.63-.08-2.06-.08-3.52V130.5l1.66,0c1.09,0,1.67.22,1.71.55l0,.21c0,.53.3.6.48.6s.41-.11.41-.59c0,0,0-.13,0-.25l0-.46c0-.39,0-.84,0-1.14a.45.45,0,0,0-.43-.53,1.09,1.09,0,0,0-.26,0,6.94,6.94,0,0,1-1.35.12h-6.1c-.18,0-.8,0-1.26-.08a1.1,1.1,0,0,1-.45-.13.69.69,0,0,0-.32-.07.45.45,0,0,0-.35.3l0,.05-.06.17,0,.07h0v0a12.81,12.81,0,0,0-.36,1.76c0,.45.25.53.41.53s.38-.16.49-.47a3.47,3.47,0,0,1,.23-.42c.14-.21.37-.3,1.39-.31l2,0Zm-12.51,4.86a5.43,5.43,0,0,0,2.61.56,5.36,5.36,0,0,0,3.09-.87,4.39,4.39,0,0,0,1.77-3.5c0-1.58-.47-2.87-2.92-4.81l-.52-.42c-1.75-1.46-2.18-2-2.18-2.94a1.8,1.8,0,0,1,1.95-1.85c1.57,0,2,.68,2.1.82a3.56,3.56,0,0,1,.2.81v0c0,.45.28.55.51.55.45-.05.45-.51.45-.73v-.09c0-1,.05-1.63.07-1.88a.31.31,0,0,1,0-.09v-.08a.44.44,0,0,0-.17-.39.57.57,0,0,0-.38-.11,2.69,2.69,0,0,1-.58-.09,8,8,0,0,0-1.85-.2,4.63,4.63,0,0,0-3.13,1.06,3.59,3.59,0,0,0-1.19,2.78c0,1.38.45,2.66,2.61,4.46l.86.71c1.6,1.35,2,2,2,3.17a2.2,2.2,0,0,1-2.34,2.18,2.3,2.3,0,0,1-2.45-1.67,3,3,0,0,1-.05-.63.69.69,0,0,0-.07-.34.42.42,0,0,0-.42-.25h0c-.44,0-.47.49-.49.66V139c0,.36-.08,1-.08,1.83,0,.54.08.85.54,1.07m-17.62-.1a10.36,10.36,0,0,0,0-1l0-9.65c0-1.08.1-1.14.29-1.16a1.63,1.63,0,0,1,.28,0h0c.41,0,.56-.24.56-.48,0-.46-.52-.46-.68-.46-.41,0-.78,0-1.1,0h-.61c-.34,0-.86,0-1.36,0h0c-.17,0-.7,0-.7.48a.55.55,0,0,0,.12.3.53.53,0,0,0,.39.16,3.89,3.89,0,0,1,.71.07c.21.05.33.14.35,1.25l.15,7.36-.73-.82-.13-.14c-.71-.79-1.56-1.73-2.36-2.6-2.49-2.7-4.93-5.36-5.19-5.65a1.22,1.22,0,0,1-.14-.16,1.15,1.15,0,0,0-.7-.48.51.51,0,0,0-.5.46,3.2,3.2,0,0,0-.05.74l0,9.43c0,.43,0,1.72-.23,1.78a1.83,1.83,0,0,1-.55.08.49.49,0,0,0-.51.48c0,.14.07.46.64.46s1,0,1.31,0h.47c.24,0,.8,0,1.54,0,.56,0,.64-.29.64-.46a.49.49,0,0,0-.51-.48,3.33,3.33,0,0,1-.71-.08c-.16-.05-.33-.28-.36-1.61l-.18-6.84c.7.78,2.1,2.36,3.56,4,1.73,1.88,4.09,4.31,4.26,4.47l.05,0c.95,1,1.09,1.09,1.41,1.11h0a.5.5,0,0,0,.48-.5m-20.78-11.72c2.2,0,4.57,1.78,4.57,5.69,0,5-3.43,5.27-4.12,5.27-2.84,0-4.83-2.44-4.83-5.93,0-3.1,1.68-5,4.38-5m0,12.34a6.76,6.76,0,0,0,6.87-7.11c0-3.92-2.72-6.55-6.77-6.55a6.69,6.69,0,0,0-6.79,6.81c0,3.3,2.09,6.85,6.69,6.85m-7.76-1a12,12,0,0,0,.28-2,1,1,0,0,0,0-.33.47.47,0,0,0-.44-.36c-.2,0-.46.11-.51.58a2.31,2.31,0,0,1-.45,1c-.32.4-1,.43-1.92.43h-.1c-1.4,0-1.79-.12-2-.33s-.3-3-.3-4.13V132.9c0-3,0-3.52,0-4.13s.16-.76.42-.8a3.21,3.21,0,0,1,.57,0,.52.52,0,0,0,.53-.51c0-.11,0-.46-.62-.46h-.07c-.41,0-1.24,0-1.64,0h-.68c-.43,0-1.24,0-1.92,0s-.64.32-.64.46a.52.52,0,0,0,.53.51,4.32,4.32,0,0,1,.56,0c.41.1.49.22.52.81s0,1.14,0,4.13v3.38c0,1.87,0,3.35-.09,4.12s-.21.86-.26.86a2.61,2.61,0,0,1-.49.07c-.39,0-.52.23-.52.44a.45.45,0,0,0,.22.4.62.62,0,0,0,.31.07h.15c.37,0,.95,0,1.41-.05h.45c.42,0,.86,0,1.47,0,.88,0,2,.07,3.62.07H147c.89,0,1.24-.12,1.43-.8m69.41,11.78c-.34,0-.93,0-1.3,0h-.51c-.35,0-1.07,0-1.62,0s-.67.34-.67.48a.47.47,0,0,0,.51.43,3.79,3.79,0,0,1,.45,0c.41.12.45.13.46,1.39v2.79c0,.15,0,.2-.14.25a4.17,4.17,0,0,1-1.67.29,5.51,5.51,0,0,1-4-1.65,6.44,6.44,0,0,1-1.61-4.28,5,5,0,0,1,1.47-3.89,4.85,4.85,0,0,1,3.26-1c1.83,0,3.2.6,3.56,1.16a2.35,2.35,0,0,1,.29.93v.07a.48.48,0,0,0,.45.5.42.42,0,0,0,.42-.34,1.09,1.09,0,0,0,0-.3v-.08a17.25,17.25,0,0,1,.09-2c0-.14,0-.23,0-.28a.48.48,0,0,0-.13-.37.46.46,0,0,0-.38-.18,8.31,8.31,0,0,1-1.25-.16,14.47,14.47,0,0,0-2.57-.29,8.35,8.35,0,0,0-4.54,1.1,6.65,6.65,0,0,0-2.89,5.73,6.76,6.76,0,0,0,2.07,5,8.19,8.19,0,0,0,5.6,1.86,8.38,8.38,0,0,0,3.64-.79c.39-.22.41-.49.4-1.22v-1.84c0-.68,0-1.17,0-1.69s.15-.61.29-.64a2.14,2.14,0,0,1,.35,0,.46.46,0,0,0,.5-.43c0-.22-.1-.48-.61-.48m-33.07,3.85c-.19,0-.43.1-.47.54a2,2,0,0,1-.34.81c-.26.32-.9.35-1.65.35h-.09c-1.17,0-1.52-.11-1.68-.27s-.24-2.69-.24-3.5v-2.93c0-2.55,0-3,0-3.52s.15-.61.32-.64a3.18,3.18,0,0,1,.48,0,.44.44,0,0,0,.5-.44c0-.3-.21-.46-.64-.46l-1.41,0H179c-.32,0-1.05,0-1.6,0s-.64.16-.64.48c0,.1.05.42.52.42a2.07,2.07,0,0,1,.46,0c.3.07.37.13.4.63s0,1,0,3.53V155c0,1.6,0,2.86-.08,3.52s-.14.61-.17.62a2.14,2.14,0,0,1-.41.06.46.46,0,0,0-.51.44c0,.23.15.47.56.47h.08l1.21,0,.39,0c.18,0,.37,0,.61,0l.59,0c.71,0,1.68.07,3.14.07h.14c.82,0,1.07-.15,1.22-.72a10.52,10.52,0,0,0,.26-1.75v-.06a1,1,0,0,0,0-.24.41.41,0,0,0-.41-.33m9.68,0c-.19,0-.43.1-.47.54a1.91,1.91,0,0,1-.35.81c-.26.32-.9.35-1.65.35h-.09c-1.17,0-1.51-.11-1.67-.27s-.25-2.69-.25-3.5v-2.93c0-2.55,0-3,0-3.52s.14-.61.32-.64a3,3,0,0,1,.47,0,.45.45,0,0,0,.51-.44c0-.3-.22-.46-.64-.46l-1.47,0h-.48c-.35,0-1.08,0-1.65,0-.42,0-.64.16-.64.47a.45.45,0,0,0,.52.43,2.07,2.07,0,0,1,.46,0c.3.06.37.13.41.63s0,1,0,3.53V155c0,1.6,0,2.86-.08,3.52s-.14.61-.17.62a2,2,0,0,1-.41.06.46.46,0,0,0-.51.44c0,.23.15.47.55.47h.09l1.21,0,.38,0,.61,0,.6,0h.08c.69,0,1.65.07,3.05.07h.15c.81,0,1.06-.15,1.22-.72a10.87,10.87,0,0,0,.26-1.75v-.05a.66.66,0,0,0,0-.25.4.4,0,0,0-.4-.33M169.1,159c-2.84,0-4.83-2.44-4.83-5.93,0-3.1,1.68-5,4.38-5,2.2,0,4.57,1.78,4.57,5.69,0,5-3.43,5.27-4.12,5.27m-.34-12.28a6.69,6.69,0,0,0-6.79,6.81c0,3.3,2.09,6.85,6.69,6.85a6.76,6.76,0,0,0,6.87-7.11c0-3.92-2.72-6.55-6.77-6.55m-8.08,9.2c-.42,0-.46.37-.49.53v.08a3.58,3.58,0,0,1-.61,1.41,4.34,4.34,0,0,1-3.1.85,6.52,6.52,0,0,1-6.48-6.66,6.18,6.18,0,0,1,1.59-4.74c.57-.56,1.61-1.3,4.11-1.3a5.83,5.83,0,0,1,3.55,1,2.29,2.29,0,0,1,.71,1.67,1.2,1.2,0,0,0,0,.4.46.46,0,0,0,.47.38c.44,0,.46-.44.48-.66v-.1c0-.13,0-.38,0-.68v-.27c0-.36,0-.74,0-1s0-.62.07-.82,0-.21,0-.25a.55.55,0,0,0-.14-.42.53.53,0,0,0-.41-.2,15.77,15.77,0,0,1-1.89-.28,17.15,17.15,0,0,0-2.83-.24,7.57,7.57,0,0,0-8.3,7.68,7.67,7.67,0,0,0,2.42,6,9.12,9.12,0,0,0,6.53,2.18,11.51,11.51,0,0,0,3.57-.48,1,1,0,0,0,.67-.8,20,20,0,0,0,.43-2.59c0-.53-.28-.63-.47-.64"/><polygon class="cls-2" points="104.72 129.47 110.32 112.21 117.05 126.83 110.7 101.26 101.77 125.17 75.89 125.17 98.68 139.99 87.98 129.47 104.72 129.47"/><path class="cls-2" d="M147.48,122.14s-20.14-2.52-39.67,12.55c0,0-17.16,14.24-19.54,38.09,0,0,9.8-27.33,27.61-38s22.8-10.4,31.6-12.68"/><polygon class="cls-2" points="98 164.57 110.46 148.13 124.96 157.47 118.43 142.08 134.76 130.56 124.14 143.43 131.28 165.18 110.76 153.81 98 164.57"/><path class="cls-3" d="M9.79,124.39c3.71,0,7.51.47,9.4.48l26,0c2.6,0,10,.94,16,.94,3.75,0,6.92-.38,7.89-1.6,1.52-1.9.23-12.32.25-14.61q0-6.66.1-13.31c.16-20.36.19-40.72.26-61.09,0-2-.55-5.17-.45-7.94a134.51,134.51,0,0,0-61.4,97.14Q8.77,124.39,9.79,124.39Z"/><path class="cls-3" d="M172.44,268c-4.45-1.5-7.47-.47-12-2.7-3.73-1.86-7.72-3.63-11.34-5.73-5.15-3-6.2-8.81-8.8-14-2.29-4.56-1.7-10.83-4.06-14.83-.84-1.42-3.26-2.39-4.41-3.78-1.28-1.55-1.76-3.36-2.87-5-2-2.93-4.94-5.07-6.7-8.18-3.52-6.19-4.81-14.17-8.87-20-3.79-5.41-10.93-11.7-17.39-12.64a54,54,0,0,0-7.68-.75c-3.62,0-7.11.79-9.1,3.69C76,188.89,76.5,199.38,68,199.38h0c-4.92,0-15-6.83-18.93-9.74-6.36-4.76-9.78-9.52-11.45-17.22-1.46-6.72-4.08-11.25-9.61-15.21C22,153,16.57,147.29,11,142.46a37.49,37.49,0,0,1-4.17-4.8c0,1.08-.12,2.14-.12,3.22A134.63,134.63,0,0,0,177,270.72,15.83,15.83,0,0,0,172.44,268Z"/></g></g></svg>